<?xml version="1.0" encoding="utf-8"?>
<!-- Generator: Adobe Illustrator 28.0.0, SVG Export Plug-In . SVG Version: 6.00 Build 0)  -->
<svg version="1.1" id="Layer_1" xmlns="http://www.w3.org/2000/svg" xmlns:xlink="http://www.w3.org/1999/xlink" x="0px" y="0px"
	 viewBox="0 0 122.9 122.9" style="enable-background:new 0 0 122.9 122.9;" xml:space="preserve">
<style type="text/css">
	.st0{fill-rule:evenodd;clip-rule:evenodd;fill:#FAFFFA;}
</style>
<path class="st0" d="M25.2,0h72.5c13.9,0,25.2,11.3,25.2,25.2v72.5c0,13.9-11.3,25.2-25.2,25.2H25.2C11.3,122.8,0,111.6,0,97.7V25.2
	C0,11.3,11.3,0,25.2,0z M72.9,49.3c1.5-1.5,4-1.4,5.4,0.2c1.4,1.5,1.4,3.8,0,5.3L63.8,69.1c-1.5,1.5-3.9,1.5-5.4,0L44,55
	c-1.6-1.4-1.7-3.8-0.3-5.4c1.4-1.6,3.8-1.7,5.4-0.3c0.1,0.1,0.2,0.2,0.3,0.3l7.9,7.8l0.1-27.5c0-2.1,1.7-3.8,3.9-3.8
	c2.1,0,3.8,1.7,3.8,3.9l0,0l0,27.3L72.9,49.3L72.9,49.3z M31,84.5l0-15c0-2.1,1.7-3.8,3.9-3.8c2.1,0,3.8,1.7,3.8,3.9l0,0v10.9
	c15.2,0,30.4,0,45.6,0v-11c0-2.1,1.7-3.8,3.9-3.8s3.8,1.7,3.8,3.9l-0.1,14.9l0,0c-0.1,2.1-1.8,3.7-3.9,3.7c-17.8,0-35.5,0-53.3,0
	C32.7,88.1,31.1,86.5,31,84.5z"/>
</svg>
