<?xml version="1.0" encoding="utf-8"?>
<!-- Generator: Adobe Illustrator 28.0.0, SVG Export Plug-In . SVG Version: 6.00 Build 0)  -->
<svg version="1.1" id="Layer_1" xmlns="http://www.w3.org/2000/svg" xmlns:xlink="http://www.w3.org/1999/xlink" x="0px" y="0px"
	 viewBox="0 0 122.9 122.9" style="enable-background:new 0 0 122.9 122.9;" xml:space="preserve">
<style type="text/css">
	.st0{fill-rule:evenodd;clip-rule:evenodd;fill:#FAFFFA;}
</style>
<path class="st0" d="M25.2,0h72.5c13.9,0,25.2,11.3,25.2,25.2v72.5c0,13.9-11.3,25.2-25.2,25.2H25.2C11.3,122.8,0,111.6,0,97.7V25.2
	C0,11.3,11.3,0,25.2,0z M29.3,37.6L62,64.3l31.3-26.7H29.3z M27.2,82.5l23.3-23.4l-23.3-19C27.2,40.1,27.2,82.5,27.2,82.5z
	 M53.1,61.2L29,85.3h64.7l-23-24.1l-7.6,6.4l0,0c-0.6,0.5-1.5,0.5-2.1,0L53.1,61.2L53.1,61.2z M73.2,59.1l22.5,23.6V39.9L73.2,59.1z
	"/>
</svg>
