<?xml version="1.0" encoding="utf-8"?>
<!-- Generator: Adobe Illustrator 28.0.0, SVG Export Plug-In . SVG Version: 6.00 Build 0)  -->
<svg version="1.1" id="Layer_1" xmlns="http://www.w3.org/2000/svg" xmlns:xlink="http://www.w3.org/1999/xlink" x="0px" y="0px"
	 viewBox="0 0 112.6 122.9" style="enable-background:new 0 0 112.6 122.9;" xml:space="preserve">
<style type="text/css">
	.st0{fill-rule:evenodd;clip-rule:evenodd;fill:#FAFFFA;}
</style>
<g>
	<path class="st0" d="M104.4,6.1c6.3,5.1,6.9,11.8,7.6,13.5l0.3,2.5c0.9,5.4-1.7,12.7-5.6,17.4L89.2,59.8c-6.8,7.8-18,10.4-27.5,6.4
		l0,0c3.5,5.6,3.1,9.6,3.5,10.6c0.9,5.4-1.7,12.7-5.6,17.4L42,114.6c-8.5,9.9-23.6,11.1-33.5,2.6c-5-5-7.8-9.3-8.4-16.5
		c-0.5-6.2,1.5-12.4,5.6-17.2l17.9-20.8c5-5.1,7.5-5.9,13.3-7.5l2.5-0.3l10.7,1.6c0.2,0.1,0.4,0.2,0.7,0.3l0,0
		c-5.3-8.7-4.6-20.1,2.1-28L70.5,8.4c4.1-4.8,10-7.7,16.2-8.2C92-0.7,99.4,1.8,104,5.8L104.4,6.1L104.4,6.1z M74.2,51.7l-3.7,4.2
		l0.6,0h0l0.6,0h0l0.1,0h0c2.1-0.2,4.2-0.9,6-2.1c0.3-0.2,0.7-0.5,1-0.8l0,0l0,0c0.3-0.3,0.6-0.6,0.9-1l0,0l0.1-0.1l17.5-20.2
		c1.5-1.7,2.4-3.8,2.7-5.9c0.1-0.4,0.1-0.9,0.1-1.3c0-0.4,0-0.9,0-1.3v0l0-0.1c-0.2-2.1-0.9-4.2-2.1-6c-0.2-0.3-0.5-0.7-0.8-1l0,0
		c-0.3-0.3-0.6-0.6-0.9-0.9l0,0l-0.1-0.1l-0.1-0.1L96.2,15c-1.7-1.4-3.7-2.3-5.8-2.6h0c-0.4-0.1-0.8-0.1-1.2-0.1c-0.4,0-0.8,0-1.3,0
		h-0.1l-0.1,0c-2.1,0.2-4.2,0.9-6,2.1c-0.3,0.2-0.7,0.5-1,0.8l0,0c-0.3,0.3-0.6,0.6-0.9,0.9l0,0l-0.1,0.1L62.2,36.5
		c-1.5,1.7-2.4,3.8-2.7,5.9l0,0c-0.1,0.4-0.1,0.9-0.1,1.3c0,0.4,0,0.8,0,1.3l0,0.2v0v0c0,0.5,0.1,0.9,0.2,1.4l3.6-4.2l0.1-0.1
		l0.1-0.1l0,0l0,0c1.3-1.4,3-2.2,4.8-2.3c1.8-0.1,3.6,0.4,5.1,1.6l0,0l0,0l0.1,0.1l0,0l0,0l0,0l0,0l0.1,0.1l0,0l0,0
		c2.1,1.8,2.8,4.6,2.2,7.1c-0.1,0.5-0.3,1-0.5,1.5c-0.2,0.5-0.5,0.9-0.8,1.3l0,0l0,0l0,0l0,0L74.2,51.7L74.2,51.7L74.2,51.7
		L74.2,51.7z M40.1,80.2L40.1,80.2c2.3,2,5.9,1.8,7.9-0.6l5.6-6.5c0.7,1.4,1,3,1.2,4.6c0.2,3.4-0.8,7-3.2,9.8L34,107.7
		c-2.4,2.8-5.7,4.3-9.2,4.6c-3.4,0.2-6.8-0.8-9.6-3.1l-0.2-0.1c-2.8-2.4-4.3-5.7-4.6-9.2c-0.2-3.4,0.8-6.9,3.1-9.7l0.1-0.1l17.2-20
		l0,0l0,0l0.2-0.2c2.4-2.8,5.7-4.3,9.2-4.6c1.6-0.1,3.2,0,4.7,0.5l-5.6,6.5C37.5,74.7,37.7,78.2,40.1,80.2L40.1,80.2z"/>
</g>
</svg>
