<?xml version="1.0" encoding="utf-8"?>
<!-- Generator: Adobe Illustrator 28.0.0, SVG Export Plug-In . SVG Version: 6.00 Build 0)  -->
<svg version="1.1" id="Layer_1" xmlns="http://www.w3.org/2000/svg" xmlns:xlink="http://www.w3.org/1999/xlink" x="0px" y="0px"
	 viewBox="0 0 122.9 122.9" style="enable-background:new 0 0 122.9 122.9;" xml:space="preserve">
<style type="text/css">
	.st0{fill-rule:evenodd;clip-rule:evenodd;fill:#FAFFFA;}
</style>
<path class="st0" d="M101,0H21.9C9.8,0,0,9.8,0,21.9V101c0,12.1,9.8,21.8,21.9,21.9H101c12.1,0,21.8-9.8,21.9-21.9V21.9
	C122.8,9.8,113.1,0,101,0z M93.5,88.1c-2.6,4.5-7.8,6-12.7,6.8c-7.5,1.1-14.2-1.4-22.3-6.5c-2-1.2-4.1-2.5-6.2-4.1
	C39,74.3,25.3,56.1,27.9,40C29,32.9,33.7,27,43,27.8L51.3,42c1.7,2.1,0.5,4.1-2.1,6c-2.6,1.9-6.8,4.2-5.2,7.9v0
	c4.9,8.9,11.4,17.1,23.3,23.2c1.8,0.9,3.4,0,4.8-1.5c2.1-2.1,5-7.9,8.5-6.3l13,7.5C96.2,80.7,95.4,84.9,93.5,88.1z"/>
</svg>
