<svg width="507" height="457" viewBox="0 0 507 457" fill="none" xmlns="http://www.w3.org/2000/svg">
<path d="M117.967 27.2654C143.954 4.33738 181.458 -6.40354 214.453 3.96077C249.501 14.9728 274.783 46.9093 309.412 59.2019C344.04 71.4944 384.225 62.5462 418.389 76.7067C449.108 89.4662 470.811 121.584 471.41 155.042C471.575 165.587 469.837 176.041 470.137 186.556C471.44 233.407 512.404 274.427 505.934 320.84C504.205 332.322 499.636 343.182 492.646 352.424C485.656 361.666 476.468 368.993 465.928 373.731C447.251 381.851 426.148 381.128 405.763 381.128C368.319 381.007 328.703 384.397 298.388 406.421C283.59 417.162 271.818 431.835 256.451 441.611C230.285 458.182 197.049 458.544 166.51 453.663C144.298 450.063 121.262 443.193 106.045 426.547C90.1988 409.193 85.6605 384.367 84.028 360.851C83.0694 347.143 82.7099 332.832 76.3145 320.675C67.8521 304.646 50.7327 295.683 36.6836 284.279C12.7194 264.861 -3.9807 233.889 0.827129 203.323C3.74777 184.764 14.0674 168.78 26.9632 155.569C33.2736 149.141 40.0414 143.185 47.2129 137.748C53.7132 132.807 65.0963 128.076 69.8891 121.523C73.9331 115.98 73.5736 107.333 75.2062 100.749C77.484 91.5837 80.5562 82.6364 84.3875 74.0102C92.111 56.1826 103.564 40.2389 117.967 27.2654Z" fill="#D77353"/>
<path d="M157.193 85.4893C175.646 69.2198 202.276 61.5821 225.716 68.9185C250.594 76.7369 268.552 99.4088 293.116 108.086C317.679 116.763 346.241 110.451 370.49 120.514C381.396 125.231 390.737 132.983 397.412 142.857C404.088 152.731 407.822 164.317 408.174 176.252C408.309 183.784 407.066 191.166 407.275 198.638C408.204 231.9 437.231 261.035 432.737 293.996C431.51 302.157 428.261 309.877 423.287 316.443C418.314 323.009 411.777 328.21 404.28 331.566C391.024 337.351 376.017 336.824 361.563 336.778C335.008 336.688 306.835 339.098 285.312 354.735C274.828 362.358 266.455 372.813 255.492 379.727C236.904 391.492 213.3 391.779 191.627 388.238C175.856 385.678 159.485 380.812 148.686 368.971C137.423 356.648 134.218 339.023 133.049 322.271C132.36 312.54 132.121 302.371 127.568 293.755C121.576 282.366 109.4 275.994 99.4245 267.904C82.4099 254.105 70.5476 232.126 73.9625 210.418C76.0444 197.237 83.3685 185.894 92.5198 176.508C97.0221 171.971 101.853 167.777 106.973 163.96C111.586 160.435 119.659 157.075 123.059 152.42C125.95 148.489 125.68 142.357 126.849 137.672C128.47 131.168 130.65 124.817 133.364 118.691C138.845 106.032 146.972 94.7077 157.193 85.4893Z" fill="#F0A494"/>
<path d="M195.358 142.146C206.487 132.34 222.543 127.73 236.667 132.174C251.644 136.889 262.488 150.552 277.316 155.825C292.144 161.097 309.338 157.256 323.971 163.357C330.528 166.2 336.144 170.862 340.162 176.798C344.181 182.734 346.435 189.698 346.663 196.875C346.738 201.395 346.004 205.914 346.123 210.433C346.678 230.484 364.216 248.094 361.446 267.919C360.7 272.825 358.741 277.465 355.75 281.413C352.76 285.361 348.831 288.491 344.326 290.516C336.328 293.996 327.282 293.679 318.565 293.664C302.553 293.664 285.614 295.05 272.598 304.48C266.263 309.075 261.23 315.357 254.625 319.545C243.422 326.64 229.163 326.806 216.132 324.682C206.622 323.175 196.751 320.162 190.236 313.067C183.451 305.64 181.519 294.99 180.815 284.942C180.396 279.067 180.246 272.89 177.505 267.738C173.895 260.884 166.556 257.043 160.535 252.162C150.291 243.846 143.131 230.59 145.198 217.514C146.441 209.575 150.86 202.735 156.387 197.071C159.101 194.35 162.009 191.833 165.089 189.539C167.874 187.415 172.742 185.396 174.794 182.594C176.531 180.214 176.382 176.569 177.071 173.691C178.043 169.77 179.361 165.943 181.01 162.257C184.291 154.59 189.187 147.728 195.358 142.146Z" fill="#FFE5E0"/>
</svg>
