<svg width="411" height="63" viewBox="0 0 411 63" fill="none" xmlns="http://www.w3.org/2000/svg">
<path fill-rule="evenodd" clip-rule="evenodd" d="M81.9471 49.1197H74.0589H74.0389V26.7723C74.0454 25.4887 74.0544 24.2061 74.0635 22.9239C74.0962 18.2677 74.129 13.6165 74.0389 8.94394C74.0362 8.82532 74.0338 8.70635 74.0313 8.58721C74.0206 8.05795 74.0098 7.52512 73.969 7.00221C73.9849 6.45636 73.9582 5.9101 73.8892 5.36836C73.6883 4.5512 73.0663 4.22822 72.4392 3.90256C71.8505 3.59687 71.2573 3.28881 71.0035 2.56747C70.8799 2.29456 70.8276 1.99504 70.8514 1.69666C70.8752 1.39827 70.9743 1.11069 71.1396 0.860581C71.3049 0.61047 71.531 0.405923 71.797 0.265901C72.0629 0.125879 72.3601 0.0549154 72.661 0.0595908C73.5296 -4.43806e-10 74.3983 -2.2189e-10 75.2669 0H75.2671C76.1208 0 76.9745 0.013655 77.8283 0.02731C78.682 0.0409649 79.5357 0.0546199 80.3894 0.0546199C80.8025 0.0546199 81.1987 0.217873 81.4908 0.508447C81.783 0.79902 81.9471 1.19311 81.9471 1.60404V49.1197ZM38.3722 53.4104C36.2223 51.0093 34.4667 48.2859 33.17 45.3405C32.7769 44.4656 32.4315 43.5631 32.0859 42.6598C31.3035 40.6152 30.5196 38.5665 29.176 36.8237C26.5501 33.4301 22.9496 30.9102 18.8515 29.598L18.5819 29.5185C21.3328 28.9077 24.0237 27.8946 26.1905 26.0422C27.4842 24.9589 28.5179 23.6015 29.216 22.0694C29.9485 20.3736 30.3071 18.5413 30.2674 16.6961C30.2278 14.8508 29.791 13.0355 28.9863 11.3724C28.1209 9.68178 26.8858 8.20547 25.3717 7.05185C23.7122 5.8025 21.8401 4.86049 19.845 4.27084C17.5516 3.59049 15.1687 3.2557 12.7756 3.27762H0.509017C0.376607 3.27762 0.24962 3.32993 0.155993 3.42306C0.0623648 3.5162 0.00976562 3.64252 0.00976562 3.77423V47.9229C0.00976562 48.2258 0.130744 48.5163 0.346087 48.7306C0.561431 48.9448 0.853499 49.0651 1.15804 49.0651H7.14905C7.4536 49.0651 7.74567 48.9448 7.96101 48.7306C8.17636 48.5163 8.29733 48.2258 8.29733 47.9229V28.1876C8.81972 28.7384 9.46182 29.163 10.1745 29.4291C10.6445 29.5917 11.1248 29.7227 11.6124 29.8214C12.58 30.0136 13.5018 30.3878 14.3283 30.9239C15.2219 31.5151 16.0576 32.1885 16.8245 32.9352C18.9 34.9045 20.21 37.453 21.5156 39.9929L21.5157 39.993C22.1855 41.296 22.8541 42.5968 23.6243 43.8159C28.6951 51.8874 36.4481 57.9371 45.5365 60.9142C50.6335 62.5364 56.0676 63.0585 61.3989 62.9131C62.345 63.005 62.9698 63.011 62.9903 62.8709L61.8071 62.9007C61.6711 62.9052 61.535 62.9094 61.3989 62.9131C58.4235 62.6241 52.2711 61.4865 51.7521 61.381C46.5821 60.137 41.9152 57.3569 38.3722 53.4104ZM10.0647 29.2007C9.38878 28.9647 8.7794 28.5714 8.28735 28.0535V3.97783H12.0367C13.4673 3.95199 14.8831 4.26878 16.1647 4.90145C17.4464 5.53413 18.5562 6.46413 19.4007 7.61302C20.323 8.85487 21.0145 10.2508 21.4426 11.7349C21.9433 13.4666 22.1872 15.2617 22.1665 17.0635C22.1665 20.947 21.2562 23.9896 19.4356 26.1912C18.5778 27.2648 17.4798 28.1242 16.2291 28.701C14.9783 29.2778 13.6094 29.5561 12.2314 29.5135C11.4974 29.5197 10.7667 29.4142 10.0647 29.2007ZM60.2192 19.1245C58.8836 18.0105 57.342 17.1669 55.681 16.6414C53.7799 16.0322 51.792 15.7336 49.7948 15.7575C46.566 15.7009 43.3965 16.6242 40.7085 18.4044C39.8398 19.0003 38.8563 19.9638 38.8563 21.0911C38.8563 22.1339 39.8547 23.2066 40.9431 23.0775C41.494 22.9801 41.9907 22.6872 42.341 22.2531C43.05 21.3746 43.5256 20.3329 43.7239 19.2238C43.7974 18.6584 43.9662 18.1094 44.2232 17.5999C44.9143 16.4278 46.7044 16.4279 47.9322 16.4279H47.9476C49.2023 16.3736 50.4478 16.6625 51.549 17.2631C52.6501 17.8638 53.5647 18.7532 54.1932 19.8346C55.5978 22.0992 56.3001 25.1302 56.3001 28.9276V30.7551C55.5001 30.9898 54.6865 31.1756 53.8637 31.3113C52.99 31.4652 51.9117 31.6937 50.6436 32.0016C48.9743 32.3947 47.3358 32.9076 45.7409 33.5361C44.2315 34.1245 42.7889 34.8703 41.4374 35.7609C40.2346 36.5478 39.1858 37.5456 38.342 38.7058C37.5576 39.8047 37.1434 41.1225 37.1588 42.4701C37.1441 43.5343 37.4061 44.5841 37.9196 45.5178C38.4331 46.4515 39.1806 47.2372 40.0894 47.7988C42.0365 49.1231 44.5893 49.7852 47.7479 49.7852C49.1127 49.8109 50.4743 49.6437 51.7918 49.2886C52.7626 49.0168 53.7093 48.6663 54.6226 48.2408C55.3864 47.8733 56.0255 47.5356 56.5297 47.2475C56.9094 46.9854 57.3521 46.8277 57.8128 46.7906C58.0529 46.7929 58.2882 46.8573 58.4957 46.9774C58.7031 47.0976 58.8756 47.2694 58.996 47.476C59.2595 47.8773 59.4931 48.2972 59.695 48.7324C59.7422 48.8359 59.8179 48.9239 59.9133 48.9863C60.0087 49.0487 60.12 49.0829 60.2342 49.085L63.5792 49.1347C63.6593 49.136 63.739 49.1214 63.8134 49.0918C63.8879 49.0622 63.9556 49.0181 64.0128 48.9622C64.0699 48.9063 64.1153 48.8396 64.1463 48.766C64.1773 48.6925 64.1933 48.6135 64.1932 48.5337V27.989C64.2144 26.2638 63.8548 24.555 63.1398 22.9831C62.4565 21.503 61.4603 20.1869 60.2192 19.1245ZM56.3051 46.4381C55.4876 47.2871 54.5172 47.976 53.4444 48.4692C52.452 48.9612 51.3627 49.2292 50.2541 49.2538C49.3894 49.2834 48.5371 49.0419 47.8178 48.5635C47.1525 48.0964 46.593 47.4959 46.1753 46.8006C45.7362 46.0598 45.4209 45.2531 45.2417 44.4119C45.0476 43.5528 44.9489 42.6752 44.9471 41.7947C44.88 39.8075 45.4177 37.8464 46.4898 36.1681C47.56 34.6127 49.0876 33.4245 50.8632 32.7664C51.8075 32.4077 52.7749 32.1124 53.7589 31.8824C54.6376 31.6904 55.493 31.4834 56.325 31.2616L56.3051 46.4381ZM121.083 47.322C120.36 46.0592 120.013 44.6172 120.085 43.1654V25.6152C120.085 25.0989 120.079 24.5815 120.073 24.0639V24.0633V24.0628V24.0622V24.0617V24.0611V24.0606V24.06V24.0595V24.0589V24.0585C120.06 23.0196 120.048 21.98 120.085 20.947C120.093 20.729 120.108 20.5085 120.122 20.287V20.2869C120.185 19.3179 120.25 18.3293 119.815 17.436C119.181 16.1299 117.489 15.7028 116.186 15.4495C114.518 15.1019 109.695 14.6202 109.91 17.436C109.988 18.3753 110.539 18.7034 111.19 19.0914C111.331 19.1752 111.476 19.2617 111.623 19.3579C112.15 19.7073 112.136 20.4564 112.125 21.0508C112.123 21.1321 112.122 21.2106 112.122 21.2847V24.1899V36.3717V44.2132C111.272 45.2819 110.207 46.163 108.997 46.8006C107.79 47.4325 106.446 47.7584 105.082 47.7491C104.232 47.7851 103.386 47.6129 102.618 47.2475C101.85 46.8821 101.184 46.3347 100.679 45.6534C99.7104 44.3721 99.1812 42.3261 99.1163 39.5352V25.6301V23.7678V22.4816C99.1163 21.9849 99.1163 21.4883 99.1413 20.9619C99.149 20.7347 99.1637 20.5049 99.1785 20.274C99.2398 19.314 99.3023 18.3356 98.8717 17.4509C98.2327 16.1448 96.5452 15.7177 95.2421 15.4644C93.5746 15.1168 88.7519 14.6351 88.9616 17.4509C89.0395 18.3888 89.592 18.7173 90.2432 19.1044C90.3851 19.1888 90.5316 19.2759 90.679 19.3728C91.206 19.7222 91.1922 20.4713 91.1812 21.0657C91.1797 21.147 91.1782 21.2255 91.1782 21.2996V21.3005C91.1782 22.2686 91.1782 23.2367 91.2032 24.2048C91.2198 24.8506 91.2143 25.4323 91.2087 26.0134V26.0139V26.0144C91.206 26.3043 91.2032 26.594 91.2032 26.8915V33.0991C91.2032 33.646 91.1957 34.2013 91.1882 34.7615L91.1882 34.7624C91.132 38.9419 91.0722 43.3916 94.0789 46.6714C95.0029 47.6776 96.1381 48.4693 97.4039 48.9906C98.7548 49.5324 100.201 49.7992 101.658 49.7753C103.737 49.7923 105.791 49.3156 107.649 48.3848C109.469 47.4802 111.054 46.1699 112.282 44.5559C112.734 46.0745 113.669 47.4059 114.948 48.35C116.292 49.183 117.858 49.5932 119.441 49.5269C120.172 49.5168 120.902 49.4671 121.628 49.378C122.354 49.2985 123.07 49.1455 123.764 48.9211C123.218 48.9039 122.684 48.7479 122.215 48.4681C121.746 48.1882 121.356 47.7937 121.083 47.322ZM141.633 47.8782C143.115 48.6769 144.78 49.0822 146.466 49.0551C148.129 49.0405 149.78 48.7828 151.368 48.2904C153.025 47.8031 154.591 47.0517 156.006 46.0656C154.612 47.4011 152.904 48.369 151.039 48.8813C148.962 49.4866 146.807 49.7877 144.643 49.7752C142.242 49.8013 139.857 49.3907 137.604 48.5635C135.534 47.81 133.646 46.633 132.062 45.1087C130.478 43.5844 129.233 41.7466 128.408 39.7139C127.505 37.5073 127.057 35.1432 127.09 32.7614C127.057 30.3827 127.493 28.0208 128.373 25.8088C129.192 23.7904 130.424 21.9638 131.992 20.4454C133.573 18.9214 135.453 17.738 137.514 16.9691C139.982 16.0618 142.608 15.6549 145.237 15.7723C147.215 15.8835 149.171 16.2423 151.059 16.84C151.906 17.1208 152.714 17.5062 153.465 17.9872C153.566 18.0582 153.671 18.1295 153.778 18.2021C154.464 18.6671 155.225 19.1829 155.462 20.0034C156.036 21.965 153.874 22.8887 152.277 22.2531C150.783 21.5977 149.599 20.3981 148.967 18.901C148.433 17.7339 147.923 16.7208 146.52 16.5172C144.843 16.2788 142.966 16.8549 141.503 17.6594C140.06 18.4596 138.831 19.592 137.918 20.9619C136.889 22.5326 136.144 24.2705 135.717 26.0968C135.191 28.2825 134.936 30.524 134.958 32.7713C134.935 35.0204 135.2 37.2632 135.747 39.4457C136.197 41.2745 136.966 43.0108 138.018 44.5757C138.948 45.9415 140.186 47.0723 141.633 47.8782ZM182.152 19.1245C180.816 18.0104 179.275 17.1669 177.614 16.6414C175.711 16.0316 173.721 15.7331 171.722 15.7574C168.495 15.7019 165.328 16.6252 162.641 18.4044C161.772 19.0003 160.789 19.9637 160.784 21.091C160.784 22.1339 161.782 23.2066 162.876 23.0775C163.427 22.9801 163.923 22.6871 164.274 22.2531C164.983 21.3746 165.458 20.3329 165.657 19.2238C165.73 18.6584 165.899 18.1094 166.156 17.5999C166.847 16.4278 168.637 16.4278 169.865 16.4279H169.88C171.135 16.3736 172.38 16.6625 173.482 17.2631C174.583 17.8638 175.497 18.7532 176.126 19.8346C177.527 22.0992 178.229 25.1301 178.233 28.9276V30.7551C177.433 30.9898 176.619 31.1756 175.796 31.3113C174.918 31.4636 173.844 31.6937 172.576 32.0016C170.907 32.3947 169.268 32.9076 167.673 33.5361C166.163 34.1254 164.719 34.8711 163.365 35.7609C162.164 36.5479 161.117 37.5458 160.275 38.7058C159.49 39.8047 159.076 41.1225 159.091 42.4701C159.077 43.5337 159.338 44.5831 159.851 45.5166C160.363 46.4501 161.109 47.2362 162.017 47.7988C163.967 49.1231 166.522 49.7852 169.68 49.7852C171.045 49.8106 172.407 49.6434 173.724 49.2886C174.692 49.0146 175.635 48.6625 176.545 48.2358C177.309 47.8683 177.948 47.5306 178.452 47.2426C178.832 46.9804 179.275 46.8228 179.735 46.7857C179.975 46.7879 180.211 46.8523 180.418 46.9725C180.626 47.0926 180.798 47.2644 180.919 47.471C181.197 47.8985 181.443 48.3468 181.653 48.8118C181.689 48.8897 181.747 48.956 181.819 49.0033C181.891 49.0506 181.975 49.0772 182.062 49.08L185.652 49.1346C185.712 49.136 185.772 49.1252 185.828 49.1031C185.885 49.081 185.936 49.0479 185.979 49.0058C186.022 48.9638 186.057 48.9135 186.08 48.858C186.104 48.8025 186.116 48.7429 186.116 48.6827V27.989C186.137 26.2638 185.777 24.555 185.062 22.9831C184.382 21.5039 183.389 20.1879 182.152 19.1245ZM178.238 46.438C177.42 47.2871 176.45 47.976 175.377 48.4692C174.385 48.9612 173.295 49.2291 172.187 49.2538C171.322 49.2834 170.47 49.0419 169.75 48.5635C169.085 48.0964 168.526 47.4959 168.108 46.8006C167.66 46.062 167.338 45.2549 167.154 44.4119C166.958 43.5532 166.859 42.6753 166.86 41.7947C166.793 39.8075 167.33 37.8463 168.402 36.1681C169.472 34.6118 171 33.4233 172.776 32.7663C173.72 32.4077 174.688 32.1124 175.671 31.8824C176.545 31.6887 177.404 31.4801 178.238 31.2616V46.438ZM234.403 4.33044C232.076 3.64915 229.66 3.31445 227.234 3.33722H215.097C215.019 3.33722 214.941 3.35263 214.868 3.38258C214.795 3.41253 214.729 3.45643 214.674 3.51176C214.618 3.5671 214.574 3.6328 214.544 3.7051C214.514 3.7774 214.498 3.85488 214.498 3.93314V47.9875C214.498 48.2904 214.619 48.5809 214.835 48.7951C215.05 49.0093 215.342 49.1297 215.647 49.1297H221.638C221.942 49.1297 222.234 49.0093 222.449 48.7951C222.665 48.5809 222.786 48.2904 222.786 47.9875V28.1876C223.393 28.7843 224.139 29.2227 224.958 29.4639C226.151 29.8232 227.395 29.9908 228.642 29.9605C230.868 29.9877 233.084 29.6796 235.217 29.0467C237.066 28.5006 238.796 27.6127 240.315 26.4296C241.715 25.3254 242.841 23.9149 243.605 22.3077C244.388 20.6059 244.781 18.7515 244.753 16.8798C244.793 14.9822 244.379 13.1024 243.544 11.3959C242.708 9.68944 241.477 8.20542 239.95 7.06675C238.283 5.8286 236.403 4.9015 234.403 4.33044ZM224.418 29.1113C223.792 28.882 223.221 28.5251 222.741 28.0634L222.746 3.98778H226.495C227.925 3.96483 229.34 4.28287 230.621 4.91532C231.902 5.54776 233.013 6.47621 233.859 7.62297C234.781 8.86482 235.473 10.2608 235.901 11.7448C236.402 13.4765 236.646 15.2717 236.625 17.0735C236.625 20.9106 235.736 23.9416 233.959 26.1664C233.121 27.2466 232.036 28.1128 230.795 28.6931C229.553 29.2734 228.191 29.5513 226.82 29.5036C226.002 29.5217 225.188 29.3887 224.418 29.1113ZM271.164 19.0003C269.829 17.8872 268.289 17.0438 266.63 16.5172C264.727 15.9118 262.738 15.615 260.739 15.6382C257.512 15.5827 254.344 16.506 251.658 18.2852C250.789 18.8811 249.806 19.8445 249.801 20.9718C249.801 22.0097 250.799 23.0874 251.892 22.9583C252.443 22.8608 252.94 22.5679 253.29 22.1339C253.999 21.2554 254.475 20.2137 254.673 19.1046C254.747 18.5376 254.915 17.9869 255.173 17.4757C255.864 16.3086 257.654 16.3086 258.882 16.3087H258.897C260.151 16.2545 261.396 16.5428 262.497 17.1425C263.598 17.7422 264.513 18.6303 265.143 19.7104C266.544 21.9783 267.246 25.0093 267.249 28.8034V30.6359C266.449 30.8683 265.635 31.054 264.813 31.1921C263.934 31.3444 262.861 31.5745 261.593 31.8824C259.924 32.2755 258.285 32.7883 256.69 33.4169C255.18 34.0062 253.736 34.7519 252.382 35.6417C251.179 36.4273 250.132 37.4254 249.291 38.5866C248.507 39.6836 248.093 40.9999 248.108 42.346C248.092 43.4105 248.352 44.4613 248.865 45.3959C249.378 46.3306 250.125 47.1173 251.034 47.6795C252.988 49.0038 255.542 49.666 258.697 49.666C260.062 49.6914 261.424 49.5242 262.741 49.1694C263.712 48.8975 264.659 48.5471 265.572 48.1215C266.336 47.754 266.975 47.4163 267.479 47.1283C267.859 46.8661 268.301 46.7085 268.762 46.6714C269.002 46.6737 269.238 46.738 269.445 46.8582C269.652 46.9783 269.825 47.1502 269.945 47.3567C270.226 47.7841 270.473 48.2324 270.684 48.6976C270.718 48.7754 270.774 48.8419 270.845 48.8894C270.916 48.9369 270.998 48.9634 271.084 48.9657L274.683 49.0204C274.743 49.0211 274.802 49.01 274.858 48.9879C274.913 48.9658 274.963 48.933 275.006 48.8915C275.049 48.85 275.083 48.8006 275.106 48.746C275.13 48.6914 275.142 48.6328 275.143 48.5734V27.8648C275.164 26.1396 274.804 24.4308 274.089 22.8589C273.406 21.3775 272.408 20.0611 271.164 19.0003ZM267.254 46.3139C266.438 47.1628 265.467 47.8503 264.394 48.34C263.402 48.8342 262.312 49.1023 261.204 49.1247C260.339 49.1543 259.488 48.9147 258.767 48.4393C258.102 47.9703 257.542 47.3681 257.125 46.6714C256.677 45.9346 256.354 45.1292 256.171 44.2877C255.975 43.429 255.876 42.5511 255.877 41.6705C255.811 39.6828 256.35 37.7216 257.424 36.0439C258.492 34.4862 260.02 33.2974 261.798 32.6422C262.741 32.2813 263.709 31.9859 264.693 31.7582C265.567 31.5596 266.426 31.3559 267.259 31.1374L267.254 46.3139ZM263.744 7.23065L271.168 14.9827L263.36 11.2979C263.094 11.1444 262.791 11.0636 262.484 11.0636C262.176 11.0636 261.874 11.1444 261.608 11.2979L253.739 14.9778L261.098 7.23065C261.262 7.04079 261.465 6.88837 261.693 6.78388C261.922 6.67939 262.17 6.6253 262.421 6.6253C262.673 6.6253 262.921 6.67939 263.149 6.78388C263.378 6.88837 263.581 7.04079 263.744 7.23065ZM286.086 16.403L288.547 16.3633C288.761 16.3605 288.971 16.4148 289.157 16.5205C289.342 16.6262 289.495 16.7794 289.601 16.9642L292.152 21.4337C292.165 21.4564 292.184 21.4752 292.207 21.4884C292.229 21.5015 292.255 21.5084 292.282 21.5084C292.308 21.5084 292.334 21.5015 292.357 21.4884C292.379 21.4752 292.398 21.4564 292.411 21.4337C293.424 19.8074 294.767 18.4101 296.355 17.3317C297.782 16.3327 299.479 15.7857 301.223 15.7624C302.666 15.7602 304.076 16.193 305.267 17.0039C306.287 17.6342 307.126 18.515 307.703 19.5615C307.98 20.1029 308.031 20.7314 307.843 21.3095C307.344 22.7696 305.347 22.9782 304.818 21.4138C304.622 20.7861 304.499 20.1378 304.453 19.482C304.462 18.8733 304.376 18.2669 304.199 17.6843C303.665 16.4974 302.327 16.3484 301.158 16.3484C299.551 16.3787 297.988 16.8796 296.665 17.7886C295.135 18.7909 293.824 20.0897 292.811 21.6075C292.804 21.6369 292.804 21.6675 292.811 21.6969V48.1166C292.811 48.38 292.706 48.6326 292.518 48.8189C292.331 49.0051 292.077 49.1098 291.812 49.1098H285.926C285.661 49.1098 285.407 49.0051 285.22 48.8189C285.033 48.6326 284.928 48.38 284.928 48.1166V17.5949C284.925 17.2848 285.045 16.9861 285.262 16.7631C285.478 16.5402 285.774 16.4108 286.086 16.403ZM316.376 16.4179H310.545C310.368 16.4147 310.194 16.4542 310.036 16.533C309.879 16.6118 309.743 16.7275 309.64 16.8702C309.537 17.0129 309.471 17.1783 309.447 17.3521C309.423 17.5259 309.441 17.703 309.501 17.868L320.779 48.5238C320.844 48.6987 320.961 48.8496 321.114 48.9562C321.268 49.0628 321.451 49.1199 321.638 49.1197H326.401C326.591 49.1198 326.776 49.0611 326.931 48.9516C327.086 48.8421 327.202 48.6874 327.265 48.5089L338.248 16.9145C338.266 16.8574 338.27 16.797 338.26 16.738C338.251 16.679 338.227 16.6231 338.192 16.5748C338.156 16.5265 338.11 16.4872 338.056 16.4599C338.003 16.4327 337.944 16.4183 337.884 16.4179H337.319C337.239 16.4188 337.16 16.4446 337.095 16.4918C337.03 16.5389 336.981 16.6051 336.955 16.6811L327.569 44.6154L317.374 17.128C317.3 16.9231 317.164 16.7455 316.986 16.6187C316.808 16.4919 316.595 16.4219 316.376 16.4179ZM363.58 19.0003C362.244 17.8863 360.702 17.0428 359.041 16.5173C357.14 15.9119 355.152 15.6151 353.155 15.6383C349.928 15.5827 346.761 16.506 344.074 18.2852C343.205 18.8811 342.217 19.8445 342.217 20.9719C342.217 22.0098 343.215 23.0874 344.309 22.9583C344.859 22.8596 345.355 22.5669 345.706 22.1339C346.413 21.2542 346.889 20.213 347.089 19.1046C347.158 18.5366 347.327 17.9852 347.589 17.4757C348.28 16.3086 350.07 16.3087 351.293 16.3087H351.308C352.563 16.2541 353.809 16.5423 354.911 17.142C356.012 17.7416 356.928 18.6299 357.559 19.7105C358.96 21.9783 359.661 25.0093 359.661 28.8034V30.6359C358.862 30.8689 358.05 31.0546 357.229 31.1921C356.35 31.3444 355.275 31.5745 354.004 31.8824C352.337 32.2763 350.7 32.7891 349.106 33.4169C347.595 34.005 346.151 34.7508 344.798 35.6417C343.594 36.4259 342.547 37.4242 341.707 38.5866C340.923 39.6837 340.509 40.9999 340.524 42.346C340.508 43.4106 340.768 44.4613 341.281 45.396C341.794 46.3306 342.541 47.1173 343.45 47.6796C345.4 49.0039 347.955 49.666 351.113 49.666C352.478 49.6914 353.84 49.5242 355.157 49.1694C356.127 48.8985 357.072 48.548 357.983 48.1215C358.635 47.8223 359.271 47.4908 359.89 47.1283C360.27 46.8668 360.713 46.7092 361.173 46.6714C361.414 46.6727 361.649 46.7367 361.857 46.8569C362.065 46.9772 362.237 47.1495 362.356 47.3568C362.554 47.6516 362.732 47.9584 362.891 48.2755C362.995 48.4812 363.154 48.6546 363.35 48.7771C363.546 48.8996 363.772 48.9666 364.004 48.9707L366.271 49.0055C366.438 49.0075 366.605 48.9763 366.76 48.9138C366.916 48.8513 367.058 48.7587 367.177 48.6414C367.296 48.524 367.391 48.3843 367.456 48.2303C367.52 48.0763 367.554 47.911 367.554 47.7441V27.8797C367.577 26.1543 367.218 24.445 366.5 22.8739C365.822 21.3864 364.825 20.0643 363.58 19.0003ZM359.665 46.3139C358.849 47.1628 357.878 47.8503 356.805 48.34C355.813 48.8343 354.723 49.1023 353.615 49.1247C352.752 49.1536 351.902 48.9141 351.183 48.4394C350.515 47.9731 349.955 47.3703 349.541 46.6714C349.093 45.9347 348.771 45.1292 348.587 44.2877C348.389 43.4292 348.289 42.5513 348.288 41.6706C348.22 39.6825 348.759 37.7207 349.835 36.044C350.902 34.4851 352.431 33.296 354.209 32.6422C355.152 32.2813 356.12 31.9859 357.104 31.7582C357.978 31.5596 358.832 31.356 359.665 31.1375V46.3139ZM381.204 16.4179H378.333C378.206 16.4159 378.079 16.4393 377.961 16.4867C377.843 16.5341 377.736 16.6045 377.645 16.6939C377.555 16.7832 377.484 16.8896 377.435 17.0068C377.387 17.1241 377.363 17.2497 377.364 17.3764V48.1662C377.364 48.4055 377.459 48.6352 377.628 48.8053C377.798 48.9755 378.027 49.0724 378.268 49.075L384.334 49.1247C384.454 49.126 384.574 49.1034 384.686 49.0583C384.798 49.0131 384.899 48.9463 384.985 48.8618C385.07 48.7772 385.138 48.6765 385.184 48.5656C385.23 48.4547 385.253 48.3358 385.252 48.2159V21.5231C386.027 20.405 387.038 19.4679 388.213 18.7768C389.279 18.111 390.509 17.7486 391.768 17.729C393.741 17.7256 395.331 18.6742 396.536 20.5745C397.74 22.4749 398.343 24.9712 398.343 28.0634V42.3906C398.363 44.6188 399.029 46.3536 400.34 47.5951C401.651 48.8366 403.472 49.4574 405.802 49.4574C406.504 49.4511 407.206 49.408 407.904 49.3283C408.621 49.2564 409.328 49.1031 410.01 48.8714C409.57 48.8616 409.135 48.7724 408.727 48.6082C408.258 48.4284 407.839 48.1368 407.509 47.759C407.113 47.2856 406.811 46.7411 406.62 46.1549C406.358 45.3199 406.236 44.4472 406.261 43.5726V27.2788C406.282 25.664 406.015 24.0583 405.472 22.5362C404.988 21.1917 404.237 19.9573 403.265 18.9059C402.325 17.9058 401.184 17.1139 399.915 16.5818C398.57 16.0302 397.127 15.7533 395.672 15.7674C393.511 15.7585 391.383 16.2986 389.491 17.3366C387.913 18.161 386.547 19.3351 385.497 20.7682C385.44 20.8478 385.364 20.9122 385.275 20.9558C385.187 20.9994 385.09 21.021 384.991 21.0185C384.893 21.0161 384.796 20.9897 384.711 20.9418C384.625 20.8938 384.552 20.8257 384.499 20.7434L382.002 16.8549C381.917 16.7209 381.799 16.6105 381.66 16.5341C381.52 16.4577 381.363 16.4177 381.204 16.4179Z" fill="#AE4A29"/>
</svg>
