<svg width="134" height="134" viewBox="0 0 134 134" fill="none" xmlns="http://www.w3.org/2000/svg">
<path d="M15.1196 15.5609C19.7015 6.55937 28.0816 0.129757 37.0136 0.00116375C46.5088 -0.101711 55.2531 6.64938 64.7372 6.958C74.2213 7.26662 83.4073 0.991278 92.9356 1.87857C97.2283 2.35032 101.317 4.23764 104.721 7.3192C108.126 10.4008 110.705 14.5489 112.158 19.2772C113.03 22.2606 113.427 25.411 114.366 28.3815C118.385 41.6009 131.7 49.5094 133.765 63.3331C134.249 66.7628 133.983 70.2791 132.994 73.5579C132.004 76.8368 130.321 79.7726 128.101 82.0948C124.148 86.1454 118.893 87.8943 113.88 89.8103C104.628 93.1795 95.0996 97.8603 89.4246 106.862C86.6312 111.285 84.8868 116.558 81.8616 120.763C76.7386 127.9 68.6125 131.05 60.6852 132.49C54.9329 133.519 48.728 133.699 43.6602 130.356C38.3937 126.871 35.3243 120.223 33.061 113.639C31.7471 109.781 30.5326 105.769 27.9932 102.901C24.6809 99.1205 19.7236 98.1432 15.3735 96.1886C7.943 92.8709 1.39577 85.5925 0.159191 76.4367C-0.401819 70.9078 0.528118 65.3126 2.82004 60.4269C3.87757 58.019 5.08808 55.7065 6.44145 53.5086C7.6449 51.4897 10.0739 49.0979 10.7363 46.7832C11.2884 44.8286 10.5155 42.3982 10.4051 40.3536C10.243 37.5336 10.2911 34.7025 10.5487 31.8922C11.0524 26.1304 12.611 20.5614 15.1196 15.5609Z" fill="#3E6823"/>
</svg>
