<svg width="474" height="482" viewBox="0 0 474 482" fill="none" xmlns="http://www.w3.org/2000/svg">
<path d="M53.9079 112.063C61.7053 98.6701 76.1084 88.8264 91.5725 88.575C107.999 88.3095 123.229 98.3004 139.658 98.6374C156.086 98.9743 171.88 89.5136 188.375 90.7087C203.21 91.7948 216.947 102.367 221.916 116.482C223.472 120.934 224.208 125.616 225.817 130.036C232.973 149.736 256.139 161.372 259.933 181.982C260.818 187.098 260.409 192.351 258.745 197.259C257.081 202.166 254.214 206.57 250.409 210.067C243.627 216.145 234.568 218.812 225.917 221.685C210.009 226.911 193.673 233.932 183.911 247.551C179.145 254.195 176.216 262.081 171.072 268.396C162.303 279.116 148.249 283.953 134.6 286.186C124.666 287.788 113.921 288.119 105.117 283.199C95.9463 278.067 90.5216 268.17 86.5148 258.42C84.1761 252.737 82.0067 246.714 77.5793 242.456C71.729 236.846 63.2003 235.455 55.6308 232.595C42.7238 227.731 31.2715 216.94 29.0045 203.29C27.6285 195.002 29.7557 186.764 33.3668 179.34C35.1392 175.723 37.1721 172.241 39.4494 168.923C41.5118 165.91 45.6762 162.298 46.7868 158.842C47.7218 155.919 46.3507 152.3 46.1158 149.276C45.7908 145.065 45.8337 140.835 46.2441 136.634C47.0096 127.979 49.6235 119.599 53.9079 112.063Z" fill="#D77353"/>
<path d="M78.76 131.245C84.2985 121.74 94.5241 114.746 105.506 114.556C117.166 114.368 127.983 121.46 139.63 121.68C151.278 121.901 162.51 115.197 174.219 116.051C179.513 116.516 184.569 118.489 188.794 121.739C193.019 124.989 196.236 129.38 198.067 134.396C199.186 137.573 199.699 140.881 200.841 144.023C205.922 158.009 222.347 166.283 225.085 180.905C225.715 184.541 225.423 188.275 224.238 191.763C223.053 195.25 221.011 198.379 218.302 200.86C213.492 205.183 207.048 207.074 200.908 209.092C189.625 212.796 178.008 217.789 171.078 227.458C167.702 232.171 165.622 237.788 161.944 242.268C155.713 249.88 145.736 253.328 136.039 254.88C128.985 256.016 121.351 256.258 115.099 252.754C108.583 249.112 104.739 242.083 101.882 235.139C100.218 231.106 98.6835 226.824 95.5368 223.808C91.3892 219.819 85.3233 218.831 79.9498 216.804C70.7842 213.345 62.6524 205.689 61.0425 195.995C60.0685 190.107 61.5782 184.261 64.1395 178.988C65.4108 176.428 66.8701 173.967 68.5051 171.626C69.9661 169.479 72.9189 166.916 73.7058 164.461C74.3786 162.385 73.4001 159.821 73.2357 157.668C73.0071 154.679 73.0373 151.677 73.3258 148.695C73.868 142.549 75.7214 136.598 78.76 131.245Z" fill="#F0A494"/>
<path d="M102.942 149.912C106.283 144.182 112.448 139.963 119.068 139.858C126.089 139.749 132.617 144.019 139.653 144.167C146.689 144.315 153.445 140.262 160.515 140.789C163.698 141.072 166.739 142.259 169.281 144.212C171.823 146.165 173.761 148.802 174.869 151.817C175.537 153.724 175.863 155.745 176.551 157.647C179.612 166.078 189.537 171.08 191.155 179.884C191.529 182.072 191.352 184.317 190.639 186.414C189.926 188.511 188.7 190.393 187.074 191.887C184.17 194.491 180.286 195.632 176.584 196.854C169.789 199.11 162.795 202.085 158.6 207.922C156.559 210.765 155.308 214.14 153.095 216.848C149.34 221.438 143.312 223.518 137.483 224.453C133.234 225.154 128.621 225.266 124.856 223.173C120.929 220.977 118.609 216.729 116.894 212.564C115.888 210.13 114.954 207.53 113.065 205.73C110.567 203.329 106.911 202.733 103.667 201.51C98.1477 199.425 93.2411 194.808 92.2755 188.967C91.6843 185.423 92.5957 181.897 94.143 178.714C94.9114 177.177 95.791 175.699 96.7747 174.291C97.6577 172.997 99.439 171.455 99.915 169.976C100.317 168.721 99.7396 167.195 99.6265 165.877C99.4867 164.076 99.5069 162.266 99.687 160.469C99.9991 156.753 101.11 153.151 102.942 149.912Z" fill="#FFE5E0"/>
<path d="M99.3915 336.477C102.114 324.06 110.866 312.735 122.842 308.631C135.568 304.277 149.934 308.223 162.808 304.339C175.683 300.454 185.615 289.071 198.764 285.841C210.587 282.937 223.943 287.708 231.328 297.472C233.647 300.543 235.401 304.02 237.762 307.069C248.26 320.619 269.217 323.861 277.3 339C279.271 342.77 280.269 346.974 280.2 351.225C280.132 355.477 279 359.639 276.909 363.328C273.158 369.798 266.76 374.166 260.736 378.573C249.671 386.655 238.695 396.276 234.496 409.368C232.454 415.76 232.147 422.656 229.69 428.902C225.547 439.505 215.807 446.814 205.728 451.978C198.39 455.742 190.111 458.718 182.021 457.096C173.596 455.4 166.894 449.051 161.331 442.458C158.084 438.61 154.89 434.454 150.377 432.254C144.416 429.35 137.425 430.422 130.819 430.102C119.553 429.585 107.93 424.039 102.747 413.956C99.5982 407.832 99.1978 400.866 100.148 394.163C100.644 390.898 101.375 387.676 102.338 384.52C103.188 381.64 105.527 377.782 105.524 374.795C105.52 372.276 103.539 369.775 102.607 367.501C101.304 364.295 100.28 360.982 99.5457 357.6C97.9821 350.647 97.9295 343.442 99.3915 336.477Z" fill="#F0A494"/>
<path d="M123.548 345.172C125.482 336.353 131.691 328.314 140.2 325.396C149.237 322.303 159.434 325.107 168.586 322.359C177.737 319.611 184.752 311.533 194.115 309.232C198.341 308.267 202.758 308.53 206.849 309.99C210.941 311.451 214.538 314.049 217.222 317.481C218.87 319.66 220.113 322.129 221.784 324.292C229.22 333.933 244.099 336.233 249.886 346.967C251.286 349.644 251.995 352.628 251.948 355.647C251.901 358.665 251.099 361.621 249.616 364.242C246.949 368.833 242.405 371.939 238.128 375.063C230.269 380.81 222.472 387.637 219.491 396.938C218.04 401.473 217.822 406.365 216.085 410.804C213.146 418.317 206.229 423.524 199.071 427.193C193.865 429.859 187.958 431.984 182.237 430.824C176.25 429.625 171.489 425.108 167.543 420.428C165.225 417.698 162.968 414.749 159.761 413.188C155.545 411.117 150.563 411.884 145.845 411.661C137.842 411.281 129.594 407.354 125.913 400.201C123.679 395.853 123.39 390.902 124.068 386.141C124.42 383.824 124.938 381.536 125.619 379.294C126.226 377.254 127.882 374.504 127.885 372.388C127.884 370.599 126.482 368.843 125.813 367.212C124.886 364.937 124.159 362.584 123.641 360.182C122.533 355.241 122.501 350.12 123.548 345.172Z" fill="#FFE5E0"/>
<path d="M147.053 353.637C148.205 348.285 151.968 343.487 157.089 341.715C162.539 339.849 168.688 341.534 174.199 339.874C179.71 338.214 183.963 333.338 189.595 331.958C192.144 331.372 194.81 331.528 197.278 332.41C199.747 333.291 201.917 334.86 203.534 336.933C204.529 338.25 205.278 339.74 206.308 341.037C210.805 346.841 219.776 348.228 223.247 354.706C224.092 356.319 224.52 358.118 224.491 359.937C224.463 361.756 223.979 363.538 223.084 365.117C221.477 367.886 218.74 369.76 216.17 371.671C211.4 375.115 206.687 379.264 204.906 384.824C204.028 387.558 203.894 390.512 202.846 393.181C201.075 397.709 196.917 400.829 192.591 403.06C189.449 404.672 185.906 405.947 182.436 405.254C178.829 404.528 175.964 401.81 173.574 398.969C172.181 397.302 170.819 395.539 168.884 394.599C166.353 393.353 163.337 393.815 160.51 393.674C155.685 393.445 150.713 391.079 148.49 386.763C147.254 384.121 146.866 381.162 147.379 378.294C147.59 376.895 147.905 375.514 148.322 374.162C148.681 372.929 149.685 371.275 149.684 369.998C149.679 368.92 148.833 367.86 148.432 366.864C147.873 365.493 147.433 364.077 147.118 362.63C146.456 359.669 146.434 356.602 147.053 353.637Z" fill="#D77353"/>
<path d="M426.041 223.567C427.436 235.334 423.203 247.984 413.942 255.268C404.1 263.015 390.298 263.957 380.177 271.328C370.055 278.7 364.813 291.776 354.242 298.665C349.431 301.697 343.856 303.285 338.168 303.246C332.481 303.206 326.916 301.539 322.127 298.441C319.153 296.454 316.549 293.905 313.559 291.98C300.209 283.274 280.814 286.882 269.112 276.06C266.232 273.352 264.076 269.961 262.841 266.2C261.606 262.44 261.332 258.431 262.044 254.543C263.369 247.714 267.646 241.893 271.595 236.166C278.844 225.646 285.536 213.792 285.236 201.008C285.088 194.761 283.236 188.611 283.504 182.361C283.92 171.774 290.259 162.322 297.501 154.693C302.789 149.133 309.154 143.967 316.747 142.901C324.66 141.799 332.473 145.33 339.376 149.413C343.393 151.798 347.464 154.471 352.093 155.021C358.211 155.743 364.01 152.654 369.913 150.9C379.967 147.916 391.849 149.202 399.465 156.476C404.088 160.896 406.566 166.895 407.801 173.079C408.358 176.109 408.689 179.176 408.794 182.254C408.932 185.048 408.054 189.165 408.967 191.786C409.706 194.011 412.222 195.575 413.741 197.299C415.863 199.717 417.772 202.316 419.446 205.066C422.94 210.69 425.189 217 426.041 223.567Z" fill="#FFE5E0"/>
<path d="M402.192 223.345C403.187 231.696 400.185 240.678 393.605 245.858C386.617 251.359 376.812 252.031 369.63 257.269C362.449 262.507 358.725 271.779 351.223 276.669C347.807 278.822 343.848 279.95 339.809 279.922C335.771 279.894 331.819 278.711 328.418 276.512C326.3 275.086 324.461 273.311 322.335 271.923C312.852 265.745 299.093 268.284 290.769 260.621C288.726 258.695 287.196 256.286 286.32 253.615C285.443 250.945 285.247 248.098 285.75 245.336C286.692 240.481 289.731 236.348 292.532 232.288C297.682 224.821 302.441 216.412 302.224 207.32C302.113 202.885 300.816 198.51 300.987 194.074C301.311 186.549 305.766 179.859 310.934 174.445C314.691 170.5 319.212 166.834 324.607 166.079C330.218 165.294 335.766 167.804 340.655 170.688C343.51 172.38 346.4 174.281 349.689 174.665C354.032 175.182 358.159 172.989 362.346 171.74C369.482 169.619 377.915 170.531 383.329 175.697C386.617 178.864 388.37 183.102 389.229 187.494C389.634 189.639 389.883 191.81 389.975 193.99C390.067 195.968 389.445 198.9 390.104 200.754C390.628 202.334 392.409 203.446 393.52 204.667C395.029 206.381 396.386 208.225 397.573 210.178C400.033 214.187 401.609 218.677 402.192 223.345Z" fill="#D77353"/>
<path d="M377.72 223.549C378.32 228.588 376.505 234.003 372.544 237.122C368.331 240.437 362.418 240.846 358.088 244.002C353.758 247.157 351.509 252.752 346.99 255.701C344.932 256.998 342.546 257.678 340.112 257.662C337.678 257.646 335.297 256.933 333.247 255.608C331.971 254.761 330.864 253.681 329.577 252.844C323.865 249.119 315.569 250.66 310.552 246.03C309.316 244.873 308.388 243.424 307.854 241.815C307.32 240.206 307.196 238.49 307.495 236.823C308.062 233.895 309.927 231.395 311.587 228.955C314.687 224.455 317.584 219.383 317.43 213.905C317.361 211.23 316.577 208.595 316.684 205.919C316.859 201.388 319.561 197.347 322.674 194.077C324.938 191.692 327.662 189.482 330.915 189.033C334.287 188.56 337.653 190.068 340.597 191.816C342.346 192.833 344.062 193.981 346.045 194.217C348.661 194.527 351.159 193.229 353.676 192.457C357.979 191.177 363.059 191.726 366.325 194.844C368.217 196.786 369.46 199.272 369.879 201.954C370.119 203.25 370.264 204.561 370.313 205.877C370.369 207.066 369.993 208.823 370.39 209.955C370.706 210.907 371.781 211.573 372.432 212.322C373.342 213.354 374.16 214.465 374.875 215.642C376.376 218.044 377.346 220.741 377.72 223.549Z" fill="#F0A494"/>
</svg>
