<svg width="101" height="87" viewBox="0 0 101 87" fill="none" xmlns="http://www.w3.org/2000/svg">
<path d="M12.0921 10.8775C15.5155 5.17146 21.7729 0.999193 28.4433 0.93587C35.5302 0.872547 42.0594 5.19255 49.1427 5.38603C56.226 5.57952 63.0835 1.57261 70.195 2.13548C76.5901 2.64206 82.477 7.2048 84.5487 13.2591C85.1981 15.1623 85.4981 17.1746 86.1722 19.0743C89.1721 27.5173 99.1141 32.5725 100.642 41.406C101.002 43.5986 100.803 45.8462 100.063 47.9419C99.3226 50.0376 98.0655 51.9141 96.4071 53.3986C93.4566 55.9878 89.5321 57.0994 85.7875 58.292C78.9124 60.4766 71.8255 63.4387 67.5515 69.2362C65.4693 72.0682 64.1705 75.4348 61.9047 78.126C58.0718 82.6993 51.9873 84.7186 46.0899 85.6192C41.7947 86.277 37.1607 86.3896 33.3844 84.2542C29.4527 82.0274 27.1551 77.7778 25.4681 73.595C24.4835 71.1535 23.5764 68.5678 21.6847 66.735C19.186 64.3147 15.512 63.6955 12.2615 62.4502C6.71341 60.3394 1.8218 55.6782 0.904179 49.8279C0.346549 46.2748 1.30299 42.7569 2.89118 39.5908C3.68122 38.0547 4.5824 36.5779 5.58757 35.1723C6.49107 33.8847 8.3016 32.3579 8.79571 30.8769C9.21216 29.628 8.63688 28.0625 8.54865 26.782C8.42917 24.9786 8.46696 23.1683 8.66159 21.3715C9.03427 17.6682 10.2044 14.0887 12.0921 10.8775Z" fill="#D77353"/>
</svg>
