<svg width="62" height="59" viewBox="0 0 62 59" fill="none" xmlns="http://www.w3.org/2000/svg">
<g clip-path="url(#clip0_113_243)">
<path d="M30.9237 13.5193C30.9461 15.4199 30.5575 17.303 29.7847 19.0399C29.2785 20.1428 28.6119 21.1649 27.8066 22.0731V30.3642C28.4478 31.0119 29.049 31.6979 29.6069 32.4185C31.0478 34.284 31.8664 36.4308 32.6591 38.5054C32.9869 39.3623 33.324 40.2469 33.6944 41.076C34.3425 42.5321 35.101 43.9365 35.9632 45.2771V24.579C36.4373 25.0972 37.1491 25.5179 38.0986 25.8412C39.0481 26.1644 40.2563 26.326 41.7231 26.326C43.9172 26.3531 46.1027 26.048 48.2054 25.421C50.0259 24.8802 51.7281 24.0012 53.2226 22.8301C54.6007 21.7396 55.7085 20.3464 56.4601 18.7586C57.2334 17.0763 57.6207 15.2426 57.5935 13.3916C57.6299 11.5143 57.2191 9.65532 56.3951 7.96792C55.571 6.28051 54.3573 4.81303 52.8541 3.68653C51.2201 2.46104 49.3779 1.54065 47.4164 0.969722C45.1254 0.298671 42.7472 -0.028157 40.36 -3.7575e-05H28.3956C28.2394 -3.7575e-05 28.0896 0.0619662 27.9791 0.172335C27.8687 0.282704 27.8066 0.432395 27.8066 0.588481V4.86913C28.4827 5.66262 29.0638 6.53214 29.5383 7.46009C30.4734 9.34184 30.9482 11.4185 30.9237 13.5193ZM35.9632 0.645851H39.6525C41.0777 0.626851 42.4867 0.948559 43.7622 1.58415C45.0018 2.21452 46.0793 3.12205 46.9108 4.23619C47.8142 5.46466 48.4933 6.84304 48.9166 8.30771C49.4078 10.0227 49.6449 11.8003 49.6204 13.584C49.6204 17.3779 48.7468 20.3748 46.9997 22.5747C45.2526 24.7745 42.9115 25.8738 39.9766 25.8726C39.1717 25.8905 38.3705 25.7594 37.6134 25.4858C36.9965 25.2601 36.4342 24.907 35.9632 24.4494V0.645851Z" fill="#D77353"/>
<path d="M37.7675 49.5206C35.6511 47.1473 33.9234 44.4546 32.6483 41.5423C31.3834 38.7163 30.6111 35.6052 28.6979 33.1179C26.1127 29.7668 22.5703 27.279 18.5393 25.9835L18.2707 25.9039C20.9784 25.2988 23.6288 24.2994 25.7623 22.4857C27.0327 21.4173 28.0499 20.0804 28.7405 18.5715C29.4599 16.8944 29.8119 15.083 29.773 13.2587C29.734 11.4345 29.3049 9.63967 28.5145 7.9948C27.6617 6.32399 26.4446 4.86563 24.953 3.72711C23.3223 2.48781 21.4807 1.55358 19.5171 0.969583C17.2594 0.299846 14.9138 -0.0270561 12.5589 -0.000176716H0.496356C0.431173 -0.000176716 0.366633 0.0126536 0.306412 0.0375792C0.246191 0.0625048 0.191475 0.0990354 0.145384 0.145092C0.0992934 0.191148 0.0627299 0.245824 0.0377857 0.305999C0.0128415 0.366175 1.51828e-06 0.430673 1.51828e-06 0.495807V44.148C-0.000241955 44.2964 0.0287996 44.4434 0.0854666 44.5806C0.142134 44.7178 0.225314 44.8425 0.330247 44.9475C0.435179 45.0525 0.559809 45.1359 0.696999 45.1927C0.834189 45.2495 0.981248 45.2788 1.12977 45.2788H7.02491C7.17352 45.2788 7.32067 45.2496 7.45796 45.1927C7.59526 45.1359 7.72001 45.0526 7.82509 44.9476C7.93017 44.8426 8.01353 44.718 8.0704 44.5808C8.12726 44.4436 8.15653 44.2965 8.15653 44.148V24.5788C8.67144 25.1249 9.30513 25.5454 10.0086 25.8077C10.4723 25.9681 10.9463 26.0973 11.4273 26.1945C12.3755 26.3852 13.2791 26.7532 14.0906 27.279C14.9751 27.8636 15.8035 28.529 16.5649 29.2666C19.6523 32.2277 21.0099 36.4695 23.2528 40.0247C28.2163 47.9179 35.9191 54.0899 44.8239 56.9326C49.9652 58.5779 55.4585 59.0776 60.835 58.9165C60.8962 58.9165 62 58.8906 62 58.8851C61.9167 59.4606 51.6154 57.5507 50.9413 57.4045C45.8555 56.2386 41.2586 53.3737 37.7675 49.5206ZM9.90304 25.5819C9.23826 25.3501 8.63918 24.9616 8.15653 24.4493V0.645712H11.8459C13.2534 0.621666 14.6461 0.935126 15.9074 1.55982C17.1687 2.18451 18.2617 3.10223 19.0949 4.23605C19.9997 5.46398 20.6794 6.84249 21.1025 8.30757C21.5962 10.0222 21.8359 11.7998 21.8137 13.5839C21.8137 17.4222 20.9185 20.4296 19.1282 22.606C17.3379 24.7824 14.9752 25.8712 12.0403 25.8725C11.3172 25.8865 10.5962 25.7885 9.90304 25.5819Z" fill="#D77353"/>
</g>
<defs>
<clipPath id="clip0_113_243">
<rect width="62" height="59" fill="white"/>
</clipPath>
</defs>
</svg>
