<svg xmlns="http://www.w3.org/2000/svg" viewBox="0 0 442 442"><defs><style>.cls-1{fill:#3e6823;}</style></defs><g id="Layer_2" data-name="Layer 2"><g id="trash"><path class="cls-1" d="M221,0h0C98.94,0,0,98.94,0,221H0C0,343.06,98.94,442,221,442h0c122.06,0,221-98.94,221-221h0C442,98.94,343.06,0,221,0ZM90.89,241.26a47,47,0,0,0,9.88,15.7A42,42,0,0,0,116,267a53.57,53.57,0,0,0,19.53,3.46,48.08,48.08,0,0,0,22.24-5.19,59.39,59.39,0,0,0,18.53-15.33l31.14,28.18a81.46,81.46,0,0,1-31.51,24.46Q157,310.95,133,311a106.1,106.1,0,0,1-37.81-6.54,91,91,0,0,1-30.15-18.54,84.33,84.33,0,0,1-20-28.54,95.63,95.63,0,0,1,0-72.66,84.43,84.43,0,0,1,20-28.54,91,91,0,0,1,30.15-18.54A106.1,106.1,0,0,1,133,131.05q24,0,42.88,8.27a80.54,80.54,0,0,1,31.51,24.35l-31.14,28.17a60.85,60.85,0,0,0-18.53-15.08,48.08,48.08,0,0,0-22.24-5.19A53.57,53.57,0,0,0,116,175a42,42,0,0,0-15.2,10,47,47,0,0,0-9.88,15.7,59.12,59.12,0,0,0,0,40.52ZM330,307.49H281.79l-73.89-173h52.64l47.11,112.83,48-112.83h48.44Z"/></g></g></svg>